# xmcd CD database file
#
# Track frame offsets:
#	150
#	13927
#	28758
#	46071
#	59991
#	80399
#	107022
#	127872
#	142385
#	156242
#	175989
#	186743
#	199386
#	213016
#	226910
#	241232
#	252914
#	271915
#	297381
#
# Disc length: 4139 seconds
#
# Revision: 0
# Processed by: cddbd v1.5.1PL2 Copyright (c) Steve Scherf et al.
# Submitted via: CDex 1.51
#
DISCID=21102913
DTITLE=Miles Davis - Ornithology
DYEAR=2002
DGENRE=Jazz
TTITLE0=A Night In Tunisia
TTITLE1=Now's The Time
TTITLE2=Ornithology
TTITLE3=Out Of Nowhere
TTITLE4=Overtime
TTITLE5=Ray's Idea
TTITLE6=Rifftide
TTITLE7=Rouge
TTITLE8=Rocker
TTITLE9=S'il Vous Plait
TTITLE10=Sippin' At Bells
TTITLE11=The Way You Look Tonight
TTITLE12=Thriving On A Riff
TTITLE13=Steeple Chase
TTITLE14=Venus De Milo
TTITLE15=Nice Work If You Can Get It
TTITLE16=Victory Ball
TTITLE17=Yahoo
TTITLE18=Yardbird Suite
EXTD=YEAR: 2002
EXTT0=
EXTT1=
EXTT2=
EXTT3=
EXTT4=
EXTT5=
EXTT6=
EXTT7=
EXTT8=
EXTT9=
EXTT10=
EXTT11=
EXTT12=
EXTT13=
EXTT14=
EXTT15=
EXTT16=
EXTT17=
EXTT18=
PLAYORDER=
